<svg width="115" height="48" viewBox="0 0 115 48" fill="none" xmlns="http://www.w3.org/2000/svg">
<g id="Group">
<g id="Group_2">
<g id="Group_3">
<path id="Vector" d="M44.3252 0.528564C44.149 0.755098 43.9728 0.956459 43.7966 1.18299C42.7646 2.46668 41.8333 3.80072 40.9523 5.18509L43.1421 6.74566C39.0645 12.0566 36.0189 18.1479 34.2318 24.7929L37.4536 27.6119C41.0782 19.3309 45.634 11.7546 51.5742 5.08441L44.3252 0.528564Z" fill="#E4E4E4"/>
<path id="Vector_2" d="M36.5475 2.66803C35.6665 3.87621 34.5339 5.28575 33.8039 6.64496L35.9434 8.58308C33.1747 12.1069 31.4631 15.7063 30.708 19.9601C30.4311 21.5207 30.3052 23.0057 30.3304 24.7928L32.8223 27.4609C34.2822 19.7587 37.6047 12.711 42.2864 6.79598L36.5475 2.66803Z" fill="#E4E4E4"/>
<path id="Vector_3" d="M29.8522 27.1337C29.8522 27.2092 29.8773 27.3099 29.8773 27.3854L27.7882 25.2208C27.461 23.786 27.3099 22.301 27.3099 20.7908C27.3099 20.6649 27.3099 20.5139 27.3099 20.388C27.3854 16.8642 28.6691 13.3655 30.3304 10.5212L28.9712 8.98584C29.4243 7.90351 30.4562 6.36812 31.4379 5.13477L35.3141 8.60828C31.8154 12.8873 29.7263 18.3492 29.7263 24.3146C29.7011 25.2711 29.7515 26.2024 29.8522 27.1337Z" fill="#E4E4E4"/>
<path id="Vector_4" d="M26.6555 20.7656C26.6555 23.1065 27.0834 25.3466 27.8637 27.4106L25.699 25.4221C24.9943 23.5344 24.5916 21.4704 24.5916 19.3561C24.5916 16.9649 25.0698 14.6744 25.9759 12.5852L25.246 11.4022C25.7494 10.1437 26.4542 8.86 27.2344 7.7525L29.7767 10.6219C27.9644 13.4662 26.6555 17.1411 26.6555 20.7656Z" fill="#E4E4E4"/>
<path id="Vector_5" d="M24.0378 19.356C24.0378 21.5458 24.4657 23.635 25.2208 25.5479C23.5344 23.2323 22.5527 20.3628 22.5527 17.292C22.5527 14.9008 23.1317 12.6607 24.1888 10.6974L25.4222 12.6859C24.516 14.6995 24.0378 16.9648 24.0378 19.356Z" fill="#E4E4E4"/>
<path id="Vector_6" d="M53.6382 0C52.5056 1.18301 51.3981 2.39119 50.3409 3.64971L52.5307 5.15994C47.3456 10.9995 43.2429 17.569 39.8448 24.6922L43.6959 27.4861C49.2838 19.5322 54.8716 12.2328 61.3656 4.63136L53.6382 0Z" fill="#E4E4E4"/>
<path id="Vector_7" d="M70.9051 5.76404C66.9533 11.8049 60.0566 19.8343 51.1463 27.4358L46.7415 24.7425C51.7 17.7452 57.3885 10.3954 62.1709 4.50552L60.2328 3.34768C61.0131 2.3912 61.8185 1.45989 62.624 0.503418L64.5873 1.7116L70.9051 5.76404Z" fill="#E4E4E4"/>
<path id="Vector_8" d="M91.1673 14.6743C90.2612 19.4316 87.4673 22.8547 81.1495 27.4106L79.2869 25.1704C85.1012 20.2873 87.9455 15.9832 89.1285 12.0818L91.1673 14.6743Z" fill="#E4E4E4"/>
<path id="Vector_9" d="M91.2682 15.6812C91.1424 18.8275 88.726 22.3765 84.4219 25.6738L85.2273 27.0582L85.4539 27.4357C86.8382 26.3786 88.1723 25.4473 89.3301 23.8615C90.7648 21.9234 91.4192 19.9853 91.4192 17.6696C91.4444 17.0152 91.3689 16.2852 91.2682 15.6812Z" fill="#E4E4E4"/>
<path id="Vector_10" d="M78.8086 6.87151C74.4038 15.0267 67.4819 21.9234 59.9811 27.4358L55.4253 24.7173C63.1274 17.4179 68.7404 10.8484 71.8616 5.61299L69.6718 4.1531C70.2507 3.32248 70.8296 2.51703 71.4085 1.6864L73.5228 3.14629L78.8086 6.87151Z" fill="#E4E4E4"/>
<path id="Vector_11" d="M84.4216 9.01097C81.3509 16.688 75.3351 22.6533 68.2371 27.4861L64.6377 24.6921C70.88 20.086 76.7447 13.0131 79.5889 6.74563L77.4998 5.28575L78.0787 4.27893L79.9917 5.71364L84.4216 9.01097Z" fill="#E4E4E4"/>
<path id="Vector_12" d="M88.7761 11.4526C86.7121 17.3676 82.2821 22.4269 75.3854 27.4106L73.0446 24.8181C78.8589 20.3629 83.0875 14.9009 85.1515 8.93552L83.7923 7.87836L84.1447 7.29944L85.3781 8.38177L88.7761 11.4526Z" fill="#E4E4E4"/>
</g>
<g id="Group_4">
<g id="Group_5">
<path id="Vector_13" d="M53.5879 5.03406C48.2266 11.0498 43.8973 17.7703 40.4489 25.1201L39.8448 24.667C43.2177 17.5438 47.3456 10.9743 52.5307 5.13474L50.3409 3.62452C50.4668 3.47349 50.5926 3.32247 50.7185 3.17145L53.5879 5.03406Z" fill="#939FAB"/>
<path id="Vector_14" d="M44.0735 6.69527C39.7693 12.1069 36.472 18.3743 34.8108 25.3466L34.2067 24.818C35.9686 18.173 39.0394 12.0566 43.117 6.77079L40.9272 5.21022C41.0278 5.03402 41.1537 4.85783 41.2795 4.68164L44.0735 6.69527Z" fill="#939FAB"/>
<path id="Vector_15" d="M30.8842 24.7174C30.8842 24.9942 30.9094 25.2208 30.9094 25.4221L30.3304 24.7929C30.3304 23.0058 30.4311 21.5459 30.708 19.9602C31.4631 15.7064 33.1495 12.107 35.9435 8.58313L33.804 6.64501C33.9046 6.46882 34.0053 6.31779 34.106 6.1416L36.7237 8.45728C33.5523 12.5601 30.7332 18.2486 30.8842 24.7174Z" fill="#939FAB"/>
<path id="Vector_16" d="M28.2161 25.6738L27.7882 25.2207C27.461 23.786 27.3099 22.3009 27.3099 20.7907C27.3099 20.6649 27.3099 20.5139 27.3099 20.388C27.3854 16.8893 28.6691 13.3654 30.3304 10.5212L28.9712 8.98579C29.0467 8.83477 29.1222 8.65858 29.2229 8.45721L31.0352 10.3702C29.2732 13.3403 28.0399 16.8138 27.8637 19.8594C27.7378 21.7472 27.7882 23.8615 28.2161 25.6738Z" fill="#939FAB"/>
<path id="Vector_17" d="M26.1018 25.7997L25.6739 25.4221C24.9691 23.5343 24.5664 21.4704 24.5664 19.356C24.5664 16.9397 25.0446 14.6492 25.9508 12.5852L25.2208 11.4022C25.2964 11.2008 25.397 10.9995 25.4725 10.7981L26.5297 12.4593C25.6236 14.4478 25.1957 16.3356 25.0698 18.6009C24.9188 21.0676 25.4474 23.8867 26.1018 25.7997Z" fill="#939FAB"/>
<path id="Vector_18" d="M63.3037 4.5055C57.5397 11.075 52.3546 17.9213 47.2702 25.0446L46.7416 24.7174C51.7002 17.72 57.3887 10.3702 62.171 4.48033L60.2329 3.32249C60.3588 3.17147 60.4846 3.04561 60.5853 2.89459L63.3037 4.5055Z" fill="#939FAB"/>
<path id="Vector_19" d="M73.0698 5.66331C69.42 10.9239 64.1343 17.6444 55.9539 25.0194L55.4253 24.7173C63.1274 17.4179 68.7404 10.8232 71.8364 5.61297L69.6466 4.15308C69.7473 4.00206 69.8731 3.85103 69.9738 3.70001L73.0698 5.66331Z" fill="#939FAB"/>
<path id="Vector_20" d="M91.4442 17.2921C90.8904 20.0105 88.8013 23.0057 84.6985 26.1269L84.4216 25.6738C88.7258 22.4017 91.1421 18.8275 91.268 15.6812C91.3435 16.1846 91.419 16.7635 91.4442 17.2921Z" fill="#939FAB"/>
<path id="Vector_21" d="M80.5454 6.97215C77.1726 14.5484 70.5779 21.0424 65.0908 25.0445L64.6377 24.6921C70.88 20.0859 76.7447 13.0131 79.5889 6.74562L77.4998 5.28573L77.7011 4.93335L80.5454 6.97215Z" fill="#939FAB"/>
<path id="Vector_22" d="M85.8815 9.26271C83.0121 16.1091 78.9093 21.2438 73.3718 25.2208L73.0194 24.818C78.8338 20.3629 83.0372 14.9009 85.1264 8.9355L83.7672 7.87834L83.8679 7.70215L85.8815 9.26271Z" fill="#939FAB"/>
<path id="Vector_23" d="M89.6067 12.6859C88.6754 16.4866 84.8495 21.5458 79.6644 25.6486L79.2869 25.1956C85.1012 20.3125 87.9455 16.0083 89.1285 12.1069L89.6067 12.6859Z" fill="#939FAB"/>
</g>
</g>
</g>
<g id="Group_6">
<g id="Group_7">
<g id="Group_8">
<g id="Group_9">
<path id="Vector_24" d="M3.87624 37.5542C1.7871 37.5039 0.0503408 39.1148 0 41.1536C0 41.204 0 41.2543 0 41.3298C0 43.5448 1.66125 45.0802 4.02727 45.0802H5.33613V43.6203H4.05244C2.79391 43.6958 1.73676 42.7394 1.66125 41.506C1.66125 41.4305 1.66125 41.3802 1.66125 41.3046C1.66125 39.9203 2.59255 38.9638 3.90142 38.9638C5.21028 38.9638 6.14158 39.9454 6.14158 41.3046V45.0802H7.77766V41.2543C7.75249 39.0896 6.11641 37.5291 3.87624 37.5542Z" fill="#E4E4E4"/>
<path id="Vector_25" d="M68.7404 35.9434H67.1043V37.806H65.6444L66.2485 39.1903H67.1043V42.8149C67.1043 44.2999 68.0356 45.1557 69.6213 45.1557C69.8227 45.1557 70.0241 45.1557 70.2003 45.1306V43.721H69.9737C69.1431 43.721 68.7404 43.3938 68.7404 42.689V39.1903H70.3764V37.806H68.7404V35.9434Z" fill="#E4E4E4"/>
<path id="Vector_26" d="M61.1893 37.5794C58.9743 37.5794 57.5396 39.0393 57.5396 41.3046C57.5396 43.6203 59.2008 45.2564 61.5668 45.2564C62.5233 45.2816 63.4798 45.1054 64.3356 44.7026V43.2931C63.5049 43.6707 62.5736 43.8468 61.6675 43.8468C60.3838 43.8468 59.4525 43.2428 59.2008 42.2611L59.1505 42.0597H64.7886V41.3046C64.8138 39.0645 63.4043 37.6046 61.1893 37.5794ZM59.1001 40.8767L59.1253 40.7005C59.226 39.593 60.0063 38.9134 61.1893 38.9134C62.3723 38.9134 63.1777 39.593 63.2784 40.7005V40.8516H59.1001V40.8767Z" fill="#E4E4E4"/>
<path id="Vector_27" d="M35.0372 38.7373L34.7351 39.4672V37.806H33.2753V45.0802H34.8862V41.1537C34.861 40.5999 35.0624 40.0462 35.4651 39.6434C35.9182 39.2659 36.5223 39.1148 37.1012 39.1904V37.7053C36.4971 37.6298 35.4651 37.7053 35.0372 38.7373Z" fill="#E4E4E4"/>
<path id="Vector_28" d="M51.7755 37.7304H50.4667V39.1903H51.7504C53.1851 39.1903 54.1416 40.1216 54.1416 41.506C54.1416 42.8904 53.2354 43.8469 51.9014 43.8469C50.5674 43.8469 49.6612 42.9407 49.6612 41.4557V35.0624H48.0251V41.4808C48.0251 44.0986 49.9633 45.2564 51.9014 45.2564C53.9654 45.3319 55.7021 43.7462 55.7776 41.7325C55.7776 41.657 55.7776 41.5563 55.7776 41.4808C55.7776 39.2407 54.1667 37.7304 51.7755 37.7304Z" fill="#E4E4E4"/>
<path id="Vector_29" d="M17.2669 35.0624H15.6308V41.4305C15.6308 42.9155 14.775 43.8217 13.3907 43.8217C12.0063 43.8217 11.1505 42.8904 11.1505 41.4808C11.1505 40.0713 12.107 39.1652 13.5417 39.1652H14.8254V37.7053H13.5165C11.1002 37.7053 9.48924 39.2155 9.48924 41.4557C9.41373 43.4693 11.0246 45.1809 13.0886 45.2564C13.1893 45.2564 13.2648 45.2564 13.3655 45.2564C15.3036 45.2564 17.2417 44.0986 17.2417 41.4808V35.0624H17.2669Z" fill="#E4E4E4"/>
<path id="Vector_30" d="M27.1588 37.5542C25.0697 37.5039 23.3329 39.1148 23.2826 41.1536C23.2826 41.204 23.2826 41.2795 23.2826 41.3298C23.2826 43.5448 24.9438 45.0802 27.3099 45.0802H28.6187V43.6203H27.335C26.0765 43.6958 25.0194 42.7394 24.9438 41.506C24.9438 41.4305 24.9438 41.355 24.9438 41.3046C24.9438 39.9203 25.8751 38.9638 27.184 38.9638C28.4929 38.9638 29.4242 39.9454 29.4242 41.3046V45.0802H31.0603V41.2543C31.0351 39.0896 29.399 37.5291 27.1588 37.5542Z" fill="#E4E4E4"/>
<path id="Vector_31" d="M17.0404 46.5652H16.5621V48H17.0404C19.7084 48 21.3697 46.2884 21.3697 43.5448V37.7808H19.7336V43.4945C19.7084 45.4577 18.7268 46.5652 17.0404 46.5652Z" fill="#E4E4E4"/>
<path id="Vector_32" d="M42.085 37.5542C39.9958 37.5039 38.2591 39.1148 38.2087 41.1536C38.2087 41.204 38.2087 41.2795 38.2087 41.3298C38.2087 43.5448 39.87 45.0802 42.236 45.0802H43.5449V43.6203H42.2612C41.0027 43.6958 39.9455 42.7394 39.87 41.506C39.87 41.4305 39.87 41.355 39.87 41.3046C39.87 39.9203 40.8013 38.9638 42.1102 38.9638C43.419 38.9638 44.3503 39.9454 44.3503 41.3046V45.0802H45.9864V41.2543C45.9612 39.0896 44.3503 37.5291 42.085 37.5542Z" fill="#E4E4E4"/>
</g>
</g>
<g id="Group_10">
<path id="Vector_33" d="M80.1426 45.1054H78.5065L78.3304 44.3754C78.0031 44.6775 77.6508 44.904 77.2229 45.0802C76.795 45.2564 76.3671 45.3319 75.8888 45.3319C75.1589 45.3319 74.4793 45.1557 73.9004 44.8285C73.3214 44.5013 72.8684 44.023 72.516 43.4441C72.1888 42.84 72.0126 42.1856 72.0126 41.4305C72.0126 40.6754 72.1888 40.0209 72.516 39.4168C72.8432 38.8127 73.2963 38.3597 73.9004 38.0325C74.4793 37.7052 75.1589 37.5291 75.8888 37.5291C76.3671 37.5291 76.8201 37.6046 77.248 37.7808C77.6759 37.9569 78.0535 38.1835 78.3807 38.4855L78.6072 37.7304H80.193V45.1054H80.1426ZM74.3534 42.4373C74.5296 42.7393 74.7562 42.991 75.0834 43.1672C75.3854 43.3434 75.7378 43.4441 76.1154 43.4441C76.6943 43.4441 77.1725 43.2427 77.5501 42.8652C77.9276 42.4876 78.129 41.9842 78.129 41.4053C78.129 40.8264 77.9276 40.3481 77.5501 39.9454C77.1725 39.5679 76.6943 39.3665 76.1154 39.3665C75.5364 39.3665 75.0582 39.5679 74.6806 39.9454C74.3031 40.323 74.1017 40.8012 74.1017 41.4053C74.1017 41.7829 74.1772 42.1352 74.3534 42.4373Z" fill="#E4E4E4"/>
<path id="Vector_34" d="M86.8631 39.593H85.957C84.925 39.593 84.3964 40.1468 84.3964 41.2543V45.1054H82.3073V37.7053H83.7168L84.044 38.6114C84.5726 37.9821 85.2774 37.6549 86.1835 37.6549H86.8631V39.593Z" fill="#E4E4E4"/>
<path id="Vector_35" d="M95.4463 41.9591H89.6822C89.7578 42.4625 89.9591 42.8652 90.2863 43.1421C90.6136 43.419 91.0415 43.57 91.5449 43.57C91.8973 43.57 92.2496 43.4945 92.5265 43.3434C92.8286 43.1924 93.0299 42.9659 93.2061 42.689H95.2953C95.0184 43.5196 94.5401 44.1489 93.8857 44.6271C93.2061 45.1054 92.4258 45.3319 91.5449 45.3319C90.8149 45.3319 90.1353 45.1557 89.5312 44.8285C88.9271 44.4761 88.4489 44.023 88.1217 43.419C87.7693 42.8149 87.6183 42.1604 87.6183 41.4305C87.6183 40.7005 87.7945 40.0209 88.1217 39.4169C88.4741 38.8128 88.9271 38.3597 89.5312 38.0073C90.1353 37.6801 90.8149 37.5039 91.5449 37.5039C92.3 37.5039 92.9796 37.6801 93.5837 38.0073C94.1878 38.3597 94.6408 38.8128 94.968 39.3917C95.2953 39.9706 95.4714 40.625 95.4714 41.355C95.4966 41.5563 95.4715 41.7577 95.4463 41.9591ZM93.4326 40.6754C93.3068 40.2223 93.0803 39.8448 92.7782 39.593C92.451 39.3413 92.0483 39.2155 91.57 39.2155C91.0918 39.2155 90.6891 39.3413 90.387 39.593C90.0598 39.8448 89.8584 40.2223 89.7326 40.6754H93.4326Z" fill="#E4E4E4"/>
<path id="Vector_36" d="M102.897 37.9066C103.325 38.1583 103.652 38.5359 103.903 39.0141C104.13 39.4924 104.256 40.021 104.256 40.6502V45.1306H102.167V40.9774C102.167 40.4489 102.066 40.021 101.839 39.7693C101.613 39.4924 101.286 39.3665 100.858 39.3665C100.38 39.3665 100.002 39.5427 99.7252 39.8699C99.4483 40.1972 99.2973 40.6502 99.2973 41.1788V45.1557H97.2081V37.7556H98.668L98.9701 38.6366C99.2469 38.2842 99.5993 38.0325 100.027 37.8311C100.455 37.6298 100.908 37.5543 101.412 37.5543C101.965 37.5039 102.444 37.6298 102.897 37.9066Z" fill="#E4E4E4"/>
<path id="Vector_37" d="M113.997 45.1054H112.361L112.185 44.3754C111.857 44.6775 111.505 44.904 111.077 45.0802C110.649 45.2564 110.221 45.3319 109.743 45.3319C109.013 45.3319 108.334 45.1557 107.755 44.8285C107.176 44.5013 106.723 44.023 106.37 43.4441C106.043 42.84 105.867 42.1856 105.867 41.4305C105.867 40.6754 106.043 40.0209 106.37 39.4168C106.697 38.8127 107.151 38.3597 107.755 38.0325C108.334 37.7052 109.013 37.5291 109.743 37.5291C110.221 37.5291 110.674 37.6046 111.102 37.7808C111.53 37.9569 111.908 38.1835 112.235 38.4855L112.461 37.7304H114.047V45.1054H113.997ZM108.233 42.4373C108.409 42.7393 108.636 42.991 108.963 43.1672C109.265 43.3434 109.617 43.4441 109.995 43.4441C110.574 43.4441 111.052 43.2427 111.429 42.8652C111.807 42.4876 112.008 41.9842 112.008 41.4053C112.008 40.8264 111.807 40.3481 111.429 39.9454C111.052 39.5679 110.574 39.3665 109.995 39.3665C109.416 39.3665 108.938 39.5679 108.56 39.9454C108.182 40.323 107.981 40.8012 107.981 41.4053C107.956 41.7829 108.057 42.1352 108.233 42.4373Z" fill="#E4E4E4"/>
</g>
</g>
</g>
</g>
</svg>
