<svg xmlns="http://www.w3.org/2000/svg" width="19" height="21" viewBox="0 0 19 21" fill="none">
  <path d="M9.67859 10.4286C11.0047 10.4286 12.2764 9.9018 13.2141 8.96412C14.1518 8.02644 14.6786 6.75467 14.6786 5.42859C14.6786 4.10251 14.1518 2.83074 13.2141 1.89305C12.2764 0.955373 11.0047 0.428589 9.67859 0.428589C8.35251 0.428589 7.08074 0.955373 6.14305 1.89305C5.20537 2.83074 4.67859 4.10251 4.67859 5.42859C4.67859 6.75467 5.20537 8.02644 6.14305 8.96412C7.08074 9.9018 8.35251 10.4286 9.67859 10.4286ZM7.89343 12.3036C4.04578 12.3036 0.928589 15.4208 0.928589 19.2684C0.928589 19.9091 1.44812 20.4286 2.08875 20.4286H17.2684C17.9091 20.4286 18.4286 19.9091 18.4286 19.2684C18.4286 15.4208 15.3114 12.3036 11.4637 12.3036H7.89343Z" fill="white"/>
</svg>