<svg xmlns="http://www.w3.org/2000/svg" width="24" height="24" viewBox="0 0 24 24" fill="none">
  <path d="M18.2508 10.1256C18.2508 11.9186 17.6687 13.575 16.6882 14.9188L21.6338 19.8682C22.1221 20.3566 22.1221 21.1496 21.6338 21.6379C21.1455 22.1262 20.3525 22.1262 19.8642 21.6379L14.9186 16.6884C13.5748 17.6728 11.9185 18.251 10.1254 18.251C5.6369 18.251 2 14.6141 2 10.1256C2 5.63708 5.6369 2.00018 10.1254 2.00018C14.6139 2.00018 18.2508 5.63708 18.2508 10.1256ZM10.1254 15.7509C10.8641 15.7509 11.5956 15.6054 12.2781 15.3227C12.9606 15.04 13.5807 14.6256 14.1031 14.1033C14.6254 13.5809 15.0398 12.9608 15.3225 12.2783C15.6052 11.5958 15.7507 10.8643 15.7507 10.1256C15.7507 9.38686 15.6052 8.65537 15.3225 7.97288C15.0398 7.29039 14.6254 6.67027 14.1031 6.14791C13.5807 5.62556 12.9606 5.2112 12.2781 4.9285C11.5956 4.64581 10.8641 4.50031 10.1254 4.50031C9.38668 4.50031 8.65519 4.64581 7.9727 4.9285C7.29021 5.2112 6.67008 5.62556 6.14773 6.14791C5.62537 6.67027 5.21102 7.29039 4.92832 7.97288C4.64562 8.65537 4.50012 9.38686 4.50012 10.1256C4.50012 10.8643 4.64562 11.5958 4.92832 12.2783C5.21102 12.9608 5.62537 13.5809 6.14773 14.1033C6.67008 14.6256 7.29021 15.04 7.9727 15.3227C8.65519 15.6054 9.38668 15.7509 10.1254 15.7509Z" fill="white"/>
</svg>