<svg xmlns="http://www.w3.org/2000/svg" width="218" height="30" viewBox="0 0 218 30" fill="none">
  <path
    d="M0 30H30.0797V0H0V30ZM17.0092 22.8554H8.41435C8.21533 22.8554 8.05796 22.6938 8.05796 22.5V16.0708C8.05796 15.8723 8.21996 15.7154 8.41435 15.7154H17.0092C18.9855 15.7154 20.5915 17.3123 20.5915 19.2877C20.5915 21.2631 18.9901 22.86 17.0092 22.86M22.0217 13.9338C22.0217 14.1323 21.8597 14.2892 21.6653 14.2892H13.0705C11.0942 14.2892 9.48812 12.6923 9.48812 10.7169C9.48812 8.74154 11.0895 7.14462 13.0705 7.14462H21.6653C21.8643 7.14462 22.0217 7.30615 22.0217 7.5V13.9292V13.9338Z"
    fill="white" fill-opacity="0.8" />
  <path
    d="M126.372 7.42578H129.459L135.939 22.5735H132.445L131.028 19.1904H124.701L123.285 22.5735H119.893L126.372 7.42578ZM129.918 16.315L127.89 11.4181L125.863 16.315H129.913H129.918Z"
    fill="white" fill-opacity="0.8" />
  <path d="M113.668 10.4581H109.062V7.42578H121.615V10.4581H117.009V22.5735H113.668V10.4581Z"
    fill="white" fill-opacity="0.8" />
  <path
    d="M93.4697 7.42578H96.5568L103.592 16.7673V7.42578H106.934V22.5735H104.05L96.8114 12.9827V22.5735H93.4697V7.42578Z"
    fill="white" fill-opacity="0.8" />
  <path
    d="M81.7736 7.42578H84.8608L91.3405 22.5735H87.846L86.4298 19.1904H80.1028L78.6865 22.5735H75.2939L81.7736 7.42578ZM85.319 16.315L83.2917 11.4181L81.2645 16.315H85.3143H85.319Z"
    fill="white" fill-opacity="0.8" />
  <path d="M69.0688 10.4581H64.459V7.42578H77.0157V10.4581H72.4105V22.5735H69.0688V10.4581Z"
    fill="white" fill-opacity="0.8" />
  <path
    d="M50.6895 7.42578H62.3344V10.4581H54.0311V13.4858H60.6635V16.5181H54.0311V19.5458H62.3344V22.5735H50.6895V7.42578Z"
    fill="white" fill-opacity="0.8" />
  <path
    d="M40.7669 11.6166C40.7669 10.8919 41.3871 10.4442 42.1137 10.4442H47.9038V7.42578L41.5768 7.47655C39.2395 7.47655 37.2725 9.28578 37.2725 11.6166C37.2725 13.5689 38.661 15.2996 40.5632 15.7566L44.0021 16.5642C44.6963 16.7304 45.2193 17.3673 45.2193 18.0781C45.2193 18.9273 44.451 19.5412 43.5994 19.5412H37.7769V22.5689H44.1548C46.6217 22.5689 48.6628 20.5335 48.6628 18.0735C48.6628 16.015 47.1262 14.215 45.1175 13.7304L41.7758 12.8719C41.188 12.7289 40.7622 12.2166 40.7622 11.6119"
    fill="white" fill-opacity="0.8" />
  <path
    d="M139.137 11.2285C139.137 10.0239 140.1 9.06389 141.308 9.06389H147.968V7.45312H141.257C139.147 7.45312 137.425 9.17005 137.425 11.2793C137.425 13.0424 138.633 14.5424 140.35 14.9531L145.145 16.1116C146.256 16.3793 147.01 17.39 147.01 18.5254C147.01 19.887 145.899 20.9901 144.539 20.9901H137.929V22.55H144.589C146.857 22.55 148.727 20.7362 148.727 18.4747C148.727 16.5824 147.445 14.9439 145.598 14.5008L140.803 13.3424C139.822 13.107 139.137 12.2347 139.137 11.2285Z"
    fill="white" fill-opacity="0.8" />
  <path
    d="M208.41 11.2285C208.41 10.0239 209.372 9.06389 210.58 9.06389H217.241V7.45312H210.53C208.419 7.45312 206.697 9.17005 206.697 11.2793C206.697 13.0424 207.905 14.5424 209.622 14.9531L214.417 16.1116C215.528 16.3793 216.283 17.39 216.283 18.5254C216.283 19.887 215.172 20.9901 213.811 20.9901H207.202V22.55H213.862C216.13 22.55 218 20.7362 218 18.4747C218 16.5824 216.718 14.9439 214.871 14.5008L210.076 13.3424C209.095 13.107 208.41 12.2347 208.41 11.2285Z"
    fill="white" fill-opacity="0.8" />
  <path
    d="M162.14 12.3374C162.14 15.5913 159.447 17.2205 156.225 17.2205H152.555V22.5559H150.838V7.45898H156.489C159.877 7.45898 162.103 9.40206 162.14 12.3421M160.423 12.3421C160.423 10.1867 158.933 9.06976 156.489 9.06976H152.555V15.6605H156.392C158.9 15.6605 160.428 14.3221 160.428 12.3374"
    fill="white" fill-opacity="0.8" />
  <path
    d="M178.539 14.9992C178.539 19.1577 175.521 22.7992 170.92 22.7992C166.32 22.7992 163.2 19.1577 163.2 14.9992C163.2 10.8408 166.32 7.19922 170.92 7.19922C175.521 7.19922 178.539 10.8408 178.539 14.9992ZM176.821 14.9992C176.821 11.5746 174.373 8.80998 170.92 8.80998C167.468 8.80998 164.917 11.5746 164.917 14.9992C164.917 18.4238 167.463 21.1884 170.92 21.1884C174.378 21.1884 176.821 18.4238 176.821 14.9992Z"
    fill="white" fill-opacity="0.8" />
  <path
    d="M192.618 11.9815C192.618 14.4831 190.91 15.9785 188.531 16.4077L193.173 22.5461H191.104L186.666 16.6569H182.375V22.5461H180.658V7.44922H187.166C189.026 7.44922 190.503 8.00768 191.456 8.95845C192.192 9.6923 192.618 10.7908 192.618 11.9769M190.901 11.9769C190.901 10.1215 189.461 9.05999 187.018 9.05999H182.375V15.0461H187.018C189.29 15.0461 190.901 13.92 190.901 11.9769Z"
    fill="white" fill-opacity="0.8" />
  <path d="M198.824 9.06389H193.678V7.45312H205.633V9.06389H200.537V22.55H198.824V9.06389Z"
    fill="white" fill-opacity="0.8" />
</svg>